{"title":"Big.Jake.1971.MULTI.BDRip.x264.AC3-HuSh","uid":12235897,"size":1464978008,"categoryP":"video","categoryS":"movies","magnet":"?xt=urn:btih:032d3e6f8cd680a50f40c318469e7dcc3a410d24&amp;dn=Big.Jake.1971.MULTI.BDRip.x264.AC3-HuSh&amp;tr=udp%3A%2F%2Ftracker.openbittorrent.com%3A80&amp;tr=udp%3A%2F%2Fopen.demonii.com%3A1337&amp;tr=udp%3A%2F%2Ftracker.coppersurfer.tk%3A6969&amp;tr=udp%3A%2F%2Fexodus.desync.com%3A6969","seeders":0,"leechers":1,"uploader":"TvTeam","files":3,"time":1439661200,"description":"------------------------------------------------------------------------\n\n &lt;a href=&quot; https://www.torrenting.com&quot; rel=&quot;nofollow&quot; target=&quot;_NEW&quot;&gt; https://www.torrenting.com&lt;/a&gt;\n\nSign up is OPEN - for time being. Come and have fun\n\n.......................................................................................................................General\nUnique ID                   : 213483745666117179833191643530892399310 (0xA09B794DB2C593728DD39CA5619BD2CE)\nComplete name               : F:TorrentBig.Jake.1971.MULTI.BDRip.x264.AC3-HuShBig.Jake.1971.MULTI.BDRip.x264.AC3-HuSh.mkv\nFormat                      : Matroska\nFormat version              : Version 4 / Version 2\nFile size                   : 1.36 GiB\nDuration                    : 1h 50mn\nOverall bit rate            : 1 774 Kbps\nMovie name                  : Big.Jake.1971.MULTI.BDRip.x264-HuSh\nEncoded date                : UTC 2013-11-17 07:06:22\nWriting application         : mkvmerge v6.0.0 ('Coming Up For Air') built on Jan 20 2013 09:52:00\nWriting library             : libebml v1.3.0 + libmatroska v1.4.0\n\nVideo\nID                          : 1\nFormat                      : AVC\nFormat/Info                 : Advanced Video Codec\nFormat profile              : &lt;a class=&quot;__cf_email__&quot; href=&quot;/cdn-cgi/l/email-protection&quot; data-cfemail=&quot;b0f8d9d7d8f0fc839e81&quot;&gt;[email&amp;#160;protected]&lt;/a&gt;&lt;script data-cfhash='f9e31' type=&quot;text/javascript&quot;&gt;\n/* &lt;![CDATA[ */!function(){try{var t=&quot;currentScript&quot;in document?document.currentScript:function(){for(var t=document.getElementsByTagName(&quot;script&quot;),e=t.length;e--;)if(t[e].getAttribute(&quot;data-cfhash&quot;))return t[e]}();if(t&amp;&amp;t.previousSibling){var e,r,n,i,c=t.previousSibling,a=c.getAttribute(&quot;data-cfemail&quot;);if(a){for(e=&quot;&quot;,r=parseInt(a.substr(0,2),16),n=2;a.length-n;n+=2)i=parseInt(a.substr(n,2),16)^r,e+=String.fromCharCode(i);e=document.createTextNode(e),c.parentNode.replaceChild(e,c)}t.parentNode.removeChild(t);}}catch(u){}}()/* ]]&gt; */&lt;/script&gt;\nFormat settings, CABAC      : Yes\nFormat settings, ReFrames   : 8 frames\nCodec ID                    : V_MPEG4/ISO/AVC\nDuration                    : 1h 50mn\nBit rate                    : 1 393 Kbps\nWidth                       : 720 pixels\nHeight                      : 304 pixels\nDisplay aspect ratio        : 2.35:1\nFrame rate mode             : Constant\nFrame rate                  : 23.976 fps\nColor space                 : YUV\nChroma subsampling          : 4:2:0\nBit depth                   : 8 bits\nScan type                   : Progressive\nBits/(Pixel*Frame)          : 0.265\nStream size                 : 1.04 GiB (76%)\nWriting library             : x264 core 130 r2273 b3065e6\nEncoding settings           : cabac=1 / ref=8 / deblock=1:0:0 / analyse=0x3:0x133 / me=umh / subme=9 / psy=1 / psy_rd=1.00:0.00 / mixed_ref=1 / me_range=16 / chroma_me=1 / trellis=2 / 8x8dct=1 / cqm=0 / deadzone=21,11 / fast_pskip=1 / chroma_qp_offset=-2 / threads=6 / lookahead_threads=1 / sliced_threads=0 / nr=0 / decimate=1 / interlaced=0 / bluray_compat=0 / constrained_intra=0 / bframes=3 / b_pyramid=2 / b_adapt=2 / b_bias=0 / direct=3 / weightb=1 / open_gop=0 / weightp=2 / keyint=240 / keyint_min=24 / scenecut=40 / intra_refresh=0 / rc_lookahead=60 / rc=2pass / mbtree=1 / bitrate=1393 / ratetol=1.0 / qcomp=0.60 / qpmin=0 / qpmax=69 / qpstep=4 / cplxblur=20.0 / qblur=0.5 / vbv_maxrate=17500 / vbv_bufsize=17500 / nal_hrd=none / ip_ratio=1.40 / aq=1:1.00\nLanguage                    : English\nDefault                     : Yes\nForced                      : No\nColor range                 : Limited\nColor primaries             : BT.709\nTransfer characteristics    : BT.709\nMatrix coefficients         : BT.709\n\nAudio #1\nID                          : 2\nFormat                      : AC-3\nFormat/Info                 : Audio Coding 3\nMode extension              : CM (complete main)\nFormat settings, Endianness : Big\nCodec ID                    : A_AC3\nDuration                    : 1h 50mn\nBit rate mode               : Constant\nBit rate                    : 192 Kbps\nChannel(s)                  : 1 channel\nChannel positions           : Front: C\nSampling rate               : 48.0 KHz\nCompression mode            : Lossy\nStream size                 : 151 MiB (11%)\nTitle                       : Franais\nLanguage                    : French\nDefault                     : Yes\nForced                      : No\n\nAudio #2\nID                          : 3\nFormat                      : AC-3\nFormat/Info                 : Audio Coding 3\nFormat profile              : Dolby Digital\nMode extension              : CM (complete main)\nFormat settings, Endianness : Big\nCodec ID                    : A_AC3\nDuration                    : 1h 50mn\nBit rate mode               : Constant\nBit rate                    : 192 Kbps\nChannel(s)                  : 2 channels\nChannel positions           : Front: L R\nSampling rate               : 48.0 KHz\nCompression mode            : Lossy\nStream size                 : 151 MiB (11%)\nTitle                       : Anglais\nLanguage                    : English\nDefault                     : No\nForced                      : No\n\nText #1\nID                          : 4\nFormat                      : UTF-8\nCodec ID                    : S_TEXT/UTF8\nCodec ID/Info               : UTF-8 Plain Text\nTitle                       : Franais\nLanguage                    : French\nDefault                     : No\nForced                      : No\n\nText #2\nID                          : 5\nFormat                      : UTF-8\nCodec ID                    : S_TEXT/UTF8\nCodec ID/Info               : UTF-8 Plain Text\nTitle                       : Forc\nDefault                     : Yes\nForced                      : No","torrent":{"xt":"urn:btih:032d3e6f8cd680a50f40c318469e7dcc3a410d24","amp;dn":"Big.Jake.1971.MULTI.BDRip.x264.AC3-HuSh","amp;tr":["udp%3A%2F%2Ftracker.openbittorrent.com%3A80","udp%3A%2F%2Fopen.demonii.com%3A1337","udp%3A%2F%2Ftracker.coppersurfer.tk%3A6969","udp%3A%2F%2Fexodus.desync.com%3A6969"],"infoHash":"032d3e6f8cd680a50f40c318469e7dcc3a410d24","infoHashBuffer":{"type":"Buffer","data":[3,45,62,111,140,214,128,165,15,64,195,24,70,158,125,204,58,65,13,36]},"announce":[],"urlList":[]}}